# xmcd
#
# Track frame offsets: 
#        150
#        12640
#        22350
#        32330
#        42600
#        49530
#        60485
#        75525
#        84445
#        94320
#        103425
#        114170
#        126865
#        135910
#        143770
#        154105
#        164465
#        177800
#        190315
#
# Disc length: 2601 seconds
#
# Revision: 1
# Processed by: cddbd v1.5.1PL0 Copyright (c) Steve Scherf et al.
# Submitted via: ExactAudioCopy v0.95a5
#
DISCID=fb0a2713
DTITLE=Ti-Ti Nalle (ja Riitta Korpela) - Villit rytmit
DYEAR=1997
DGENRE=Country
TTITLE0=Ti-Ti Nalle Remix
TTITLE1=Auringon valo
TTITLE2=Viidakon varjot
TTITLE3=Hammaspeikot lakoon
TTITLE4=Kaksi oikealle
TTITLE5=Ti-Ti-humppa
TTITLE6=Tuhatjalkainen
TTITLE7=Päänkääntö-rock
TTITLE8=Merirosvolaulu
TTITLE9=Reilu kaveri
TTITLE10=Amppari-Pamppari
TTITLE11=Jarrusukan kuminastat
TTITLE12=Rami ja kitara
TTITLE13=Hau-Mau-Muu-Kukkuu
TTITLE14=Tassut heilumaan
TTITLE15=Opetellaan pukemaan
TTITLE16=Yön värit
TTITLE17=Ti-Ti Nalle Remix-Karaoke
TTITLE18=Kuunsilta
EXTD=
EXTT0=
EXTT1=
EXTT2=
EXTT3=
EXTT4=
EXTT5=
EXTT6=
EXTT7=
EXTT8=
EXTT9=
EXTT10=
EXTT11=
EXTT12=
EXTT13=
EXTT14=
EXTT15=
EXTT16=
EXTT17=
EXTT18=
PLAYORDER=
